<?xml version="1.0" encoding="utf-8"?>
<!-- Generator: Adobe Illustrator 20.1.0, SVG Export Plug-In . SVG Version: 6.00 Build 0)  -->
<svg version="1.1" id="Layer_1" xmlns="http://www.w3.org/2000/svg" xmlns:xlink="http://www.w3.org/1999/xlink" x="0px" y="0px"
	 viewBox="0 0 880 200" style="enable-background:new 0 0 880 200;" xml:space="preserve">
<style type="text/css">
	.st0{display:none;opacity:0;}
	.st1{fill:#FFFFFF;}
</style>
<g id="Layer_3" class="st0">
</g>
<g id="Layer_1_1_">
	<g>
		<path class="st1" d="M140.7,67l-11.2-8.8V31.6c0-7.2-5.8-13-13-13h-13.3c-6.6,0-10.5,2-12.1,6.1l-0.9,2.4l-7.5-5.9
			c-2.3-1.8-5.1-2.8-8-2.8s-5.6,0.9-7.9,2.7L6.9,66.9c-3.2,2.4-5.1,6.3-5.1,10.3v78.4c0,7.2,5.8,13,13,13h117.9c7.2,0,13-5.8,13-13
			V77.2C145.7,73.2,143.8,69.5,140.7,67z M132.7,155.6H89.9h-30h-45v-25.2h41.3l5.3-10l10,24.3H83l16.6-30.5L106,129
			c1.6,3.8,6,5.5,9.8,3.9s5.5-6,3.9-9.8l-12.5-29c-1.1-2.6-3.7-4.4-6.5-4.5c-2.9-0.1-5.5,1.4-6.9,3.9l-18.1,33.4l-6.5-17.1
			c-1-2.7-3.4-4.5-6.3-4.8c-2.8-0.3-5.6,1.1-7.1,3.5l-6.1,11.2h-35V77.2l59.8-45.7L103.2,54V31.6h13v32.6l16.5,13V155.6z"/>
		<path class="st1" d="M96.3,64.3L96.3,64.3v-0.2c-0.1-0.4-0.2-0.9-0.4-1.4l-0.1-0.2c-0.5-1.3-1.1-2.5-1.9-3.5
			c-1.4-1.8-3.2-3.2-5.2-4c-0.2-0.1-0.3-0.1-0.5-0.2l-0.3-0.1c-0.2-0.1-0.3-0.1-0.5-0.2c-2.1-0.7-4.4-0.7-6.6-0.3
			c-1.3,0.3-2.5,0.8-3.8,1.5l-0.2,0.1c-0.4,0.3-0.8,0.5-1.1,0.8l-0.2,0.1c-0.6,0.5-1.2,1-1.8,1.7c-0.6-0.6-1.1-1.2-1.8-1.6l-0.2-0.1
			c-0.3-0.3-0.7-0.5-1.2-0.8l-0.2-0.1c-1.2-0.7-2.5-1.2-3.7-1.5c-2.2-0.5-4.5-0.4-6.6,0.3c-0.2,0.1-0.3,0.1-0.5,0.2l-0.3,0.1
			C59,55,58.9,55,58.7,55.1c-2,0.9-3.9,2.2-5.2,4c-0.8,1-1.4,2.2-1.9,3.5l-0.1,0.2c-0.2,0.5-0.3,0.9-0.4,1.3v0.2
			c-0.9,4-0.1,8.4,2.2,11.9c2.2,3.4,5.1,6,7.9,8.5c2.6,2.3,10.4,10.6,10.8,11c0.4,0.5,1.1,0.8,1.7,0.8l0,0c0.6,0,1.3-0.3,1.7-0.8
			s8.2-8.7,10.8-11.1c2.8-2.5,5.7-5.1,7.9-8.5C96.4,72.8,97.2,68.3,96.3,64.3z"/>
		<polygon class="st1" points="191.5,155.6 191.5,76.9 204.4,76.9 204.4,144.6 237.7,144.6 237.7,155.6 		"/>
		<path class="st1" d="M296.1,125.8c0,9.7-2.5,17.3-7.5,22.8s-11.9,8.2-20.8,8.2c-5.6,0-10.5-1.3-14.8-3.8s-7.6-6.1-9.9-10.8
			s-3.4-10.2-3.4-16.4c0-9.7,2.5-17.2,7.4-22.6c5-5.4,11.9-8.1,20.9-8.1c8.6,0,15.4,2.8,20.5,8.3
			C293.6,108.9,296.1,116.3,296.1,125.8z M252.8,125.8c0,13.8,5.1,20.6,15.2,20.6s15.1-6.9,15.1-20.6c0-13.6-5.1-20.4-15.2-20.4
			c-5.3,0-9.2,1.8-11.6,5.3C254,114.1,252.8,119.2,252.8,125.8z"/>
		<path class="st1" d="M345.1,155.7l0.4-7.5H345c-4,6-9.9,9-17.9,9c-7.5,0-13.4-2.7-17.6-8.2s-6.3-13.1-6.3-22.9
			c0-9.7,2.1-17.3,6.4-22.9c4.3-5.6,10.2-8.4,17.7-8.4c7.8,0,13.9,3,18.2,8.9h0.5l1.3-7.8H358v60.8c0,17.5-9.5,26.3-28.4,26.3
			c-8.6,0-16-1.2-22.1-3.7v-11c6.7,3.1,14.2,4.7,22.5,4.7c4.8,0,8.5-1.3,11.2-4s4.1-6.5,4.1-11.5v-1.8H345.1z M330.5,147
			c5.2,0,9-1.4,11.4-4.3c2.3-2.9,3.6-7.7,3.8-14.3v-2.2c0-7.3-1.2-12.6-3.6-15.9s-6.3-5-11.8-5c-4.5,0-8,1.8-10.4,5.3
			c-2.4,3.6-3.6,8.8-3.6,15.6C316.3,140.1,321.1,147,330.5,147z"/>
		<path class="st1" d="M433.9,155.6h-12.7v-36.7c0-4.6-0.9-8-2.6-10.2s-4.4-3.4-8.1-3.4c-4.9,0-8.5,1.6-10.7,4.8
			c-2.3,3.2-3.4,8.5-3.4,15.9v29.7h-12.7V96.1h9.9l1.8,7.8h0.6c1.7-2.8,4-5,7.2-6.6c3.1-1.5,6.6-2.3,10.4-2.3
			c9.2,0,15.2,3.1,18.2,9.4h0.9c1.8-2.9,4.2-5.2,7.4-6.9c3.2-1.7,6.9-2.5,11-2.5c7.1,0,12.3,1.8,15.5,5.4c3.3,3.6,4.9,9.1,4.9,16.4
			v38.8h-12.7v-36.7c0-4.6-0.9-8-2.6-10.2c-1.7-2.2-4.4-3.4-8.1-3.4c-4.9,0-8.5,1.5-10.8,4.6s-3.4,7.8-3.4,14.1L433.9,155.6
			L433.9,155.6z"/>
		<path class="st1" d="M473.5,96.1h13.8l12.1,33.8c1.8,4.8,3.1,9.3,3.7,13.6h0.4c0.3-2,0.9-4.4,1.8-7.2c0.9-2.8,5.4-16.2,13.7-40.1
			h13.7l-25.5,67.5c-4.6,12.4-12.4,18.6-23.2,18.6c-2.8,0-5.5-0.3-8.2-0.9v-10c1.9,0.4,4.1,0.6,6.5,0.6c6.1,0,10.4-3.5,12.9-10.6
			l2.2-5.6L473.5,96.1z"/>
		<path class="st1" d="M589,86.8c-7.4,0-13.2,2.6-17.4,7.9c-4.2,5.2-6.4,12.5-6.4,21.7c0,9.7,2,17,6.1,21.9c4.1,5,10,7.4,17.7,7.4
			c3.3,0,6.6-0.3,9.7-1c3.1-0.7,6.4-1.5,9.7-2.6v11c-6.2,2.3-13.2,3.5-21,3.5c-11.5,0-20.4-3.5-26.5-10.5c-6.2-7-9.3-17-9.3-30
			c0-8.2,1.5-15.3,4.5-21.5c3-6.1,7.3-10.8,13-14.1c5.7-3.3,12.3-4.9,20-4.9c8,0,15.5,1.7,22.3,5.1l-4.6,10.7
			c-2.7-1.3-5.5-2.4-8.4-3.3C595.4,87.3,592.3,86.8,589,86.8z"/>
		<path class="st1" d="M654.7,155.6l-2.5-8.3h-0.4c-2.9,3.6-5.8,6.1-8.7,7.4c-2.9,1.3-6.6,2-11.2,2c-5.9,0-10.4-1.6-13.7-4.7
			c-3.3-3.2-4.9-7.6-4.9-13.4c0-6.1,2.3-10.8,6.8-13.9c4.6-3.1,11.5-4.8,20.8-5.1l10.3-0.3v-3.2c0-3.8-0.9-6.7-2.7-8.5
			c-1.8-1.9-4.5-2.8-8.3-2.8c-3.1,0-6,0.4-8.8,1.3s-5.5,2-8.1,3.2l-4.1-9c3.2-1.7,6.8-3,10.6-3.9s7.5-1.3,10.9-1.3
			c7.6,0,13.3,1.7,17.2,5s5.8,8.5,5.8,15.6v40.1h-9V155.6z M635.9,147c4.6,0,8.3-1.3,11.1-3.9c2.8-2.6,4.2-6.2,4.2-10.8v-5.2
			l-7.6,0.3c-6,0.2-10.3,1.2-13,3s-4.1,4.5-4.1,8.2c0,2.7,0.8,4.7,2.4,6.2C630.4,146.3,632.7,147,635.9,147z"/>
		<path class="st1" d="M702.8,95c2.5,0,4.6,0.2,6.3,0.5l-1.2,11.8c-1.8-0.4-3.7-0.6-5.6-0.6c-5.1,0-9.2,1.7-12.3,5
			s-4.7,7.6-4.7,12.9v31.1h-12.7V96.1h9.9l1.7,10.5h0.6c2-3.6,4.6-6.4,7.7-8.5C695.8,96,699.2,95,702.8,95z"/>
		<path class="st1" d="M739.6,156.7c-9.3,0-16.5-2.7-21.7-8.1c-5.2-5.4-7.8-12.8-7.8-22.3c0-9.7,2.4-17.4,7.3-22.9
			c4.8-5.6,11.5-8.3,20-8.3c7.9,0,14.1,2.4,18.6,7.2c4.6,4.8,6.8,11.3,6.8,19.7v6.8H723c0.2,5.8,1.7,10.2,4.7,13.3
			c2.9,3.1,7.1,4.7,12.4,4.7c3.5,0,6.8-0.3,9.8-1s6.3-1.8,9.8-3.3v10.3c-3.1,1.5-6.2,2.5-9.4,3.1
			C747.2,156.4,743.6,156.7,739.6,156.7z M737.3,104.6c-4,0-7.2,1.3-9.7,3.8c-2.4,2.5-3.9,6.3-4.3,11.1h27
			c-0.1-4.9-1.3-8.6-3.6-11.2C744.4,105.9,741.3,104.6,737.3,104.6z"/>
	</g>
	<g id="Layer_2">
	</g>
</g>
</svg>
